<svg width="1600" height="640" viewBox="0 0 1600 640" xmlns="http://www.w3.org/2000/svg" fill="none">
  <defs>
    <linearGradient id="bg" x1="0" y1="0" x2="1600" y2="640" gradientUnits="userSpaceOnUse">
      <stop offset="0" stop-color="#F7F9FC"/>
      <stop offset="1" stop-color="#EEF3FA"/>
    </linearGradient>
    <linearGradient id="ink" x1="0" y1="0" x2="1" y2="1">
      <stop stop-color="#1E3A8A"/>
      <stop offset="1" stop-color="#334155"/>
    </linearGradient>
  </defs>

  <rect width="1600" height="640" rx="28" fill="url(#bg)"/>

  <!-- soft structure -->
  <g opacity="0.35" stroke="#CBD5E1" stroke-width="1">
    <path d="M120 142H1480"/>
    <path d="M120 498H1480"/>
  </g>

  <!-- emblem -->
  <g transform="translate(140,174)">
    <rect width="220" height="220" rx="24" fill="#FFFFFF" stroke="#D6E0EE"/>
    <circle cx="110" cy="110" r="10" fill="#0F172A"/>
    <circle cx="58" cy="58" r="8" fill="#2563EB"/>
    <circle cx="162" cy="58" r="8" fill="#2563EB"/>
    <circle cx="58" cy="162" r="8" fill="#334155"/>
    <circle cx="162" cy="162" r="8" fill="#334155"/>
    <path d="M110 110L58 58M110 110L162 58M110 110L58 162M110 110L162 162" stroke="url(#ink)" stroke-width="3" stroke-linecap="round"/>
  </g>

  <text x="430" y="280" fill="#0F172A" font-family="Inter,Segoe UI,Arial,sans-serif" font-size="70" font-weight="700" letter-spacing="-1.2">
    Free Search Aggregator
  </text>
  <text x="432" y="332" fill="#475569" font-family="Inter,Segoe UI,Arial,sans-serif" font-size="28" font-weight="500">
    Unified search orchestration with failover, quota control, and clean data management
  </text>

  <g transform="translate(432,384)">
    <rect x="0" y="0" width="170" height="42" rx="21" fill="#E2E8F0"/>
    <text x="85" y="27" text-anchor="middle" fill="#0F172A" font-family="Inter,Segoe UI,Arial,sans-serif" font-size="17" font-weight="600">Task Search</text>

    <rect x="184" y="0" width="180" height="42" rx="21" fill="#E2E8F0"/>
    <text x="274" y="27" text-anchor="middle" fill="#0F172A" font-family="Inter,Segoe UI,Arial,sans-serif" font-size="17" font-weight="600">Quota Aware</text>

    <rect x="378" y="0" width="190" height="42" rx="21" fill="#E2E8F0"/>
    <text x="473" y="27" text-anchor="middle" fill="#0F172A" font-family="Inter,Segoe UI,Arial,sans-serif" font-size="17" font-weight="600">Managed Storage</text>
  </g>
</svg>
